<mxfile host="app.diagrams.net" modified="2024-04-08T07:24:26.904Z" agent="Mozilla/5.0 (Windows NT 10.0; Win64; x64; rv:124.0) Gecko/20100101 Firefox/124.0" version="24.2.2" etag="3Xtr6ZyuB53pfeh68YOf" type="github">
  <diagram name="Strona-1" id="I8Lp4bERtLukZyq-NX2d">
    <mxGraphModel>
      <root>
        <mxCell id="0" />
        <mxCell id="1" parent="0" />
      </root>
    </mxGraphModel>
  </diagram>
</mxfile>
